<?xml version="1.0" encoding="UTF-8" standalone="no"?>
<!DOCTYPE svg PUBLIC "-//W3C//DTD SVG 1.1//EN"
 "http://www.w3.org/Graphics/SVG/1.1/DTD/svg11.dtd">
<!-- Generated by graphviz version 2.44.1 (20200629.0846)
 -->
<!-- Pages: 1 -->
<svg width="3320pt" height="44pt"
 viewBox="0.00 0.00 3320.00 44.00" xmlns="http://www.w3.org/2000/svg" xmlns:xlink="http://www.w3.org/1999/xlink">
<g id="graph0" class="graph" transform="scale(1 1) rotate(0) translate(4 40)">
<polygon fill="white" stroke="transparent" points="-4,4 -4,-40 3316,-40 3316,4 -4,4"/>
<!-- 0 -->
<g id="node1" class="node">
<title>0</title>
<ellipse fill="none" stroke="black" cx="27" cy="-18" rx="27" ry="18"/>
<text text-anchor="middle" x="27" y="-14.3" font-family="Times,serif" font-size="14.00">0</text>
</g>
<!-- 0&#45;&gt;0 -->
<g id="edge1" class="edge">
<title>0&#45;&gt;0</title>
<path fill="none" stroke="black" d="M52.44,-24.69C63.03,-25.15 72,-22.92 72,-18 72,-14.77 68.14,-12.7 62.49,-11.79"/>
<polygon fill="black" stroke="black" points="62.6,-8.29 52.44,-11.31 62.27,-15.28 62.6,-8.29"/>
</g>
<!-- 1 -->
<g id="node2" class="node">
<title>1</title>
<ellipse fill="none" stroke="black" cx="117" cy="-18" rx="27" ry="18"/>
<text text-anchor="middle" x="117" y="-14.3" font-family="Times,serif" font-size="14.00">1</text>
</g>
<!-- 1&#45;&gt;1 -->
<g id="edge2" class="edge">
<title>1&#45;&gt;1</title>
<path fill="none" stroke="black" d="M142.44,-24.69C153.03,-25.15 162,-22.92 162,-18 162,-14.77 158.14,-12.7 152.49,-11.79"/>
<polygon fill="black" stroke="black" points="152.6,-8.29 142.44,-11.31 152.27,-15.28 152.6,-8.29"/>
</g>
<!-- 2 -->
<g id="node3" class="node">
<title>2</title>
<ellipse fill="none" stroke="black" cx="207" cy="-18" rx="27" ry="18"/>
<text text-anchor="middle" x="207" y="-14.3" font-family="Times,serif" font-size="14.00">2</text>
</g>
<!-- 2&#45;&gt;2 -->
<g id="edge3" class="edge">
<title>2&#45;&gt;2</title>
<path fill="none" stroke="black" d="M232.44,-24.69C243.03,-25.15 252,-22.92 252,-18 252,-14.77 248.14,-12.7 242.49,-11.79"/>
<polygon fill="black" stroke="black" points="242.6,-8.29 232.44,-11.31 242.27,-15.28 242.6,-8.29"/>
</g>
<!-- 3 -->
<g id="node4" class="node">
<title>3</title>
<ellipse fill="none" stroke="black" cx="297" cy="-18" rx="27" ry="18"/>
<text text-anchor="middle" x="297" y="-14.3" font-family="Times,serif" font-size="14.00">3</text>
</g>
<!-- 3&#45;&gt;3 -->
<g id="edge4" class="edge">
<title>3&#45;&gt;3</title>
<path fill="none" stroke="black" d="M322.44,-24.69C333.03,-25.15 342,-22.92 342,-18 342,-14.77 338.14,-12.7 332.49,-11.79"/>
<polygon fill="black" stroke="black" points="332.6,-8.29 322.44,-11.31 332.27,-15.28 332.6,-8.29"/>
</g>
<!-- 4 -->
<g id="node5" class="node">
<title>4</title>
<ellipse fill="none" stroke="black" cx="387" cy="-18" rx="27" ry="18"/>
<text text-anchor="middle" x="387" y="-14.3" font-family="Times,serif" font-size="14.00">4</text>
</g>
<!-- 4&#45;&gt;4 -->
<g id="edge5" class="edge">
<title>4&#45;&gt;4</title>
<path fill="none" stroke="black" d="M412.44,-24.69C423.03,-25.15 432,-22.92 432,-18 432,-14.77 428.14,-12.7 422.49,-11.79"/>
<polygon fill="black" stroke="black" points="422.6,-8.29 412.44,-11.31 422.27,-15.28 422.6,-8.29"/>
</g>
<!-- 5 -->
<g id="node6" class="node">
<title>5</title>
<ellipse fill="none" stroke="black" cx="477" cy="-18" rx="27" ry="18"/>
<text text-anchor="middle" x="477" y="-14.3" font-family="Times,serif" font-size="14.00">5</text>
</g>
<!-- 5&#45;&gt;5 -->
<g id="edge6" class="edge">
<title>5&#45;&gt;5</title>
<path fill="none" stroke="black" d="M502.44,-24.69C513.03,-25.15 522,-22.92 522,-18 522,-14.77 518.14,-12.7 512.49,-11.79"/>
<polygon fill="black" stroke="black" points="512.6,-8.29 502.44,-11.31 512.27,-15.28 512.6,-8.29"/>
</g>
<!-- 6 -->
<g id="node7" class="node">
<title>6</title>
<ellipse fill="none" stroke="black" cx="567" cy="-18" rx="27" ry="18"/>
<text text-anchor="middle" x="567" y="-14.3" font-family="Times,serif" font-size="14.00">6</text>
</g>
<!-- 6&#45;&gt;6 -->
<g id="edge7" class="edge">
<title>6&#45;&gt;6</title>
<path fill="none" stroke="black" d="M592.44,-24.69C603.03,-25.15 612,-22.92 612,-18 612,-14.77 608.14,-12.7 602.49,-11.79"/>
<polygon fill="black" stroke="black" points="602.6,-8.29 592.44,-11.31 602.27,-15.28 602.6,-8.29"/>
</g>
<!-- 7 -->
<g id="node8" class="node">
<title>7</title>
<ellipse fill="none" stroke="black" cx="657" cy="-18" rx="27" ry="18"/>
<text text-anchor="middle" x="657" y="-14.3" font-family="Times,serif" font-size="14.00">7</text>
</g>
<!-- 7&#45;&gt;7 -->
<g id="edge8" class="edge">
<title>7&#45;&gt;7</title>
<path fill="none" stroke="black" d="M682.44,-24.69C693.03,-25.15 702,-22.92 702,-18 702,-14.77 698.14,-12.7 692.49,-11.79"/>
<polygon fill="black" stroke="black" points="692.6,-8.29 682.44,-11.31 692.27,-15.28 692.6,-8.29"/>
</g>
<!-- 8 -->
<g id="node9" class="node">
<title>8</title>
<ellipse fill="none" stroke="black" cx="747" cy="-18" rx="27" ry="18"/>
<text text-anchor="middle" x="747" y="-14.3" font-family="Times,serif" font-size="14.00">8</text>
</g>
<!-- 8&#45;&gt;8 -->
<g id="edge9" class="edge">
<title>8&#45;&gt;8</title>
<path fill="none" stroke="black" d="M772.44,-24.69C783.03,-25.15 792,-22.92 792,-18 792,-14.77 788.14,-12.7 782.49,-11.79"/>
<polygon fill="black" stroke="black" points="782.6,-8.29 772.44,-11.31 782.27,-15.28 782.6,-8.29"/>
</g>
<!-- 9 -->
<g id="node10" class="node">
<title>9</title>
<ellipse fill="none" stroke="black" cx="837" cy="-18" rx="27" ry="18"/>
<text text-anchor="middle" x="837" y="-14.3" font-family="Times,serif" font-size="14.00">9</text>
</g>
<!-- 9&#45;&gt;9 -->
<g id="edge10" class="edge">
<title>9&#45;&gt;9</title>
<path fill="none" stroke="black" d="M862.44,-24.69C873.03,-25.15 882,-22.92 882,-18 882,-14.77 878.14,-12.7 872.49,-11.79"/>
<polygon fill="black" stroke="black" points="872.6,-8.29 862.44,-11.31 872.27,-15.28 872.6,-8.29"/>
</g>
<!-- 10 -->
<g id="node11" class="node">
<title>10</title>
<ellipse fill="none" stroke="black" cx="927" cy="-18" rx="27" ry="18"/>
<text text-anchor="middle" x="927" y="-14.3" font-family="Times,serif" font-size="14.00">10</text>
</g>
<!-- 10&#45;&gt;10 -->
<g id="edge11" class="edge">
<title>10&#45;&gt;10</title>
<path fill="none" stroke="black" d="M952.44,-24.69C963.03,-25.15 972,-22.92 972,-18 972,-14.77 968.14,-12.7 962.49,-11.79"/>
<polygon fill="black" stroke="black" points="962.6,-8.29 952.44,-11.31 962.27,-15.28 962.6,-8.29"/>
</g>
<!-- 11 -->
<g id="node12" class="node">
<title>11</title>
<ellipse fill="none" stroke="black" cx="1017" cy="-18" rx="27" ry="18"/>
<text text-anchor="middle" x="1017" y="-14.3" font-family="Times,serif" font-size="14.00">11</text>
</g>
<!-- 11&#45;&gt;11 -->
<g id="edge12" class="edge">
<title>11&#45;&gt;11</title>
<path fill="none" stroke="black" d="M1042.44,-24.69C1053.03,-25.15 1062,-22.92 1062,-18 1062,-14.77 1058.14,-12.7 1052.49,-11.79"/>
<polygon fill="black" stroke="black" points="1052.6,-8.29 1042.44,-11.31 1052.27,-15.28 1052.6,-8.29"/>
</g>
<!-- 12 -->
<g id="node13" class="node">
<title>12</title>
<ellipse fill="none" stroke="black" cx="1107" cy="-18" rx="27" ry="18"/>
<text text-anchor="middle" x="1107" y="-14.3" font-family="Times,serif" font-size="14.00">12</text>
</g>
<!-- 12&#45;&gt;12 -->
<g id="edge13" class="edge">
<title>12&#45;&gt;12</title>
<path fill="none" stroke="black" d="M1132.44,-24.69C1143.03,-25.15 1152,-22.92 1152,-18 1152,-14.77 1148.14,-12.7 1142.49,-11.79"/>
<polygon fill="black" stroke="black" points="1142.6,-8.29 1132.44,-11.31 1142.27,-15.28 1142.6,-8.29"/>
</g>
<!-- 13 -->
<g id="node14" class="node">
<title>13</title>
<ellipse fill="none" stroke="black" cx="1197" cy="-18" rx="27" ry="18"/>
<text text-anchor="middle" x="1197" y="-14.3" font-family="Times,serif" font-size="14.00">13</text>
</g>
<!-- 13&#45;&gt;13 -->
<g id="edge14" class="edge">
<title>13&#45;&gt;13</title>
<path fill="none" stroke="black" d="M1222.44,-24.69C1233.03,-25.15 1242,-22.92 1242,-18 1242,-14.77 1238.14,-12.7 1232.49,-11.79"/>
<polygon fill="black" stroke="black" points="1232.6,-8.29 1222.44,-11.31 1232.27,-15.28 1232.6,-8.29"/>
</g>
<!-- 14 -->
<g id="node15" class="node">
<title>14</title>
<ellipse fill="none" stroke="black" cx="1287" cy="-18" rx="27" ry="18"/>
<text text-anchor="middle" x="1287" y="-14.3" font-family="Times,serif" font-size="14.00">14</text>
</g>
<!-- 14&#45;&gt;14 -->
<g id="edge15" class="edge">
<title>14&#45;&gt;14</title>
<path fill="none" stroke="black" d="M1312.44,-24.69C1323.03,-25.15 1332,-22.92 1332,-18 1332,-14.77 1328.14,-12.7 1322.49,-11.79"/>
<polygon fill="black" stroke="black" points="1322.6,-8.29 1312.44,-11.31 1322.27,-15.28 1322.6,-8.29"/>
</g>
<!-- 15 -->
<g id="node16" class="node">
<title>15</title>
<ellipse fill="none" stroke="black" cx="1377" cy="-18" rx="27" ry="18"/>
<text text-anchor="middle" x="1377" y="-14.3" font-family="Times,serif" font-size="14.00">15</text>
</g>
<!-- 15&#45;&gt;15 -->
<g id="edge16" class="edge">
<title>15&#45;&gt;15</title>
<path fill="none" stroke="black" d="M1402.44,-24.69C1413.03,-25.15 1422,-22.92 1422,-18 1422,-14.77 1418.14,-12.7 1412.49,-11.79"/>
<polygon fill="black" stroke="black" points="1412.6,-8.29 1402.44,-11.31 1412.27,-15.28 1412.6,-8.29"/>
</g>
<!-- 16 -->
<g id="node17" class="node">
<title>16</title>
<ellipse fill="none" stroke="black" cx="1467" cy="-18" rx="27" ry="18"/>
<text text-anchor="middle" x="1467" y="-14.3" font-family="Times,serif" font-size="14.00">16</text>
</g>
<!-- 16&#45;&gt;16 -->
<g id="edge17" class="edge">
<title>16&#45;&gt;16</title>
<path fill="none" stroke="black" d="M1492.44,-24.69C1503.03,-25.15 1512,-22.92 1512,-18 1512,-14.77 1508.14,-12.7 1502.49,-11.79"/>
<polygon fill="black" stroke="black" points="1502.6,-8.29 1492.44,-11.31 1502.27,-15.28 1502.6,-8.29"/>
</g>
<!-- 17 -->
<g id="node18" class="node">
<title>17</title>
<ellipse fill="none" stroke="black" cx="1557" cy="-18" rx="27" ry="18"/>
<text text-anchor="middle" x="1557" y="-14.3" font-family="Times,serif" font-size="14.00">17</text>
</g>
<!-- 17&#45;&gt;17 -->
<g id="edge18" class="edge">
<title>17&#45;&gt;17</title>
<path fill="none" stroke="black" d="M1582.44,-24.69C1593.03,-25.15 1602,-22.92 1602,-18 1602,-14.77 1598.14,-12.7 1592.49,-11.79"/>
<polygon fill="black" stroke="black" points="1592.6,-8.29 1582.44,-11.31 1592.27,-15.28 1592.6,-8.29"/>
</g>
<!-- 18 -->
<g id="node19" class="node">
<title>18</title>
<ellipse fill="none" stroke="black" cx="1647" cy="-18" rx="27" ry="18"/>
<text text-anchor="middle" x="1647" y="-14.3" font-family="Times,serif" font-size="14.00">18</text>
</g>
<!-- 18&#45;&gt;18 -->
<g id="edge19" class="edge">
<title>18&#45;&gt;18</title>
<path fill="none" stroke="black" d="M1672.44,-24.69C1683.03,-25.15 1692,-22.92 1692,-18 1692,-14.77 1688.14,-12.7 1682.49,-11.79"/>
<polygon fill="black" stroke="black" points="1682.6,-8.29 1672.44,-11.31 1682.27,-15.28 1682.6,-8.29"/>
</g>
<!-- 19 -->
<g id="node20" class="node">
<title>19</title>
<ellipse fill="none" stroke="black" cx="1737" cy="-18" rx="27" ry="18"/>
<text text-anchor="middle" x="1737" y="-14.3" font-family="Times,serif" font-size="14.00">19</text>
</g>
<!-- 19&#45;&gt;19 -->
<g id="edge20" class="edge">
<title>19&#45;&gt;19</title>
<path fill="none" stroke="black" d="M1762.44,-24.69C1773.03,-25.15 1782,-22.92 1782,-18 1782,-14.77 1778.14,-12.7 1772.49,-11.79"/>
<polygon fill="black" stroke="black" points="1772.6,-8.29 1762.44,-11.31 1772.27,-15.28 1772.6,-8.29"/>
</g>
<!-- 20 -->
<g id="node21" class="node">
<title>20</title>
<ellipse fill="none" stroke="black" cx="1827" cy="-18" rx="27" ry="18"/>
<text text-anchor="middle" x="1827" y="-14.3" font-family="Times,serif" font-size="14.00">20</text>
</g>
<!-- 20&#45;&gt;20 -->
<g id="edge21" class="edge">
<title>20&#45;&gt;20</title>
<path fill="none" stroke="black" d="M1852.44,-24.69C1863.03,-25.15 1872,-22.92 1872,-18 1872,-14.77 1868.14,-12.7 1862.49,-11.79"/>
<polygon fill="black" stroke="black" points="1862.6,-8.29 1852.44,-11.31 1862.27,-15.28 1862.6,-8.29"/>
</g>
<!-- 21 -->
<g id="node22" class="node">
<title>21</title>
<ellipse fill="none" stroke="black" cx="1917" cy="-18" rx="27" ry="18"/>
<text text-anchor="middle" x="1917" y="-14.3" font-family="Times,serif" font-size="14.00">21</text>
</g>
<!-- 21&#45;&gt;21 -->
<g id="edge22" class="edge">
<title>21&#45;&gt;21</title>
<path fill="none" stroke="black" d="M1942.44,-24.69C1953.03,-25.15 1962,-22.92 1962,-18 1962,-14.77 1958.14,-12.7 1952.49,-11.79"/>
<polygon fill="black" stroke="black" points="1952.6,-8.29 1942.44,-11.31 1952.27,-15.28 1952.6,-8.29"/>
</g>
<!-- 22 -->
<g id="node23" class="node">
<title>22</title>
<ellipse fill="none" stroke="black" cx="2007" cy="-18" rx="27" ry="18"/>
<text text-anchor="middle" x="2007" y="-14.3" font-family="Times,serif" font-size="14.00">22</text>
</g>
<!-- 22&#45;&gt;22 -->
<g id="edge23" class="edge">
<title>22&#45;&gt;22</title>
<path fill="none" stroke="black" d="M2032.44,-24.69C2043.03,-25.15 2052,-22.92 2052,-18 2052,-14.77 2048.14,-12.7 2042.49,-11.79"/>
<polygon fill="black" stroke="black" points="2042.6,-8.29 2032.44,-11.31 2042.27,-15.28 2042.6,-8.29"/>
</g>
<!-- 23 -->
<g id="node24" class="node">
<title>23</title>
<ellipse fill="none" stroke="black" cx="2097" cy="-18" rx="27" ry="18"/>
<text text-anchor="middle" x="2097" y="-14.3" font-family="Times,serif" font-size="14.00">23</text>
</g>
<!-- 23&#45;&gt;23 -->
<g id="edge24" class="edge">
<title>23&#45;&gt;23</title>
<path fill="none" stroke="black" d="M2122.44,-24.69C2133.03,-25.15 2142,-22.92 2142,-18 2142,-14.77 2138.14,-12.7 2132.49,-11.79"/>
<polygon fill="black" stroke="black" points="2132.6,-8.29 2122.44,-11.31 2132.27,-15.28 2132.6,-8.29"/>
</g>
<!-- 24 -->
<g id="node25" class="node">
<title>24</title>
<ellipse fill="none" stroke="black" cx="2187" cy="-18" rx="27" ry="18"/>
<text text-anchor="middle" x="2187" y="-14.3" font-family="Times,serif" font-size="14.00">24</text>
</g>
<!-- 24&#45;&gt;24 -->
<g id="edge25" class="edge">
<title>24&#45;&gt;24</title>
<path fill="none" stroke="black" d="M2212.44,-24.69C2223.03,-25.15 2232,-22.92 2232,-18 2232,-14.77 2228.14,-12.7 2222.49,-11.79"/>
<polygon fill="black" stroke="black" points="2222.6,-8.29 2212.44,-11.31 2222.27,-15.28 2222.6,-8.29"/>
</g>
<!-- 25 -->
<g id="node26" class="node">
<title>25</title>
<ellipse fill="none" stroke="black" cx="2277" cy="-18" rx="27" ry="18"/>
<text text-anchor="middle" x="2277" y="-14.3" font-family="Times,serif" font-size="14.00">25</text>
</g>
<!-- 25&#45;&gt;25 -->
<g id="edge26" class="edge">
<title>25&#45;&gt;25</title>
<path fill="none" stroke="black" d="M2302.44,-24.69C2313.03,-25.15 2322,-22.92 2322,-18 2322,-14.77 2318.14,-12.7 2312.49,-11.79"/>
<polygon fill="black" stroke="black" points="2312.6,-8.29 2302.44,-11.31 2312.27,-15.28 2312.6,-8.29"/>
</g>
<!-- 26 -->
<g id="node27" class="node">
<title>26</title>
<ellipse fill="none" stroke="black" cx="2367" cy="-18" rx="27" ry="18"/>
<text text-anchor="middle" x="2367" y="-14.3" font-family="Times,serif" font-size="14.00">26</text>
</g>
<!-- 26&#45;&gt;26 -->
<g id="edge27" class="edge">
<title>26&#45;&gt;26</title>
<path fill="none" stroke="black" d="M2392.44,-24.69C2403.03,-25.15 2412,-22.92 2412,-18 2412,-14.77 2408.14,-12.7 2402.49,-11.79"/>
<polygon fill="black" stroke="black" points="2402.6,-8.29 2392.44,-11.31 2402.27,-15.28 2402.6,-8.29"/>
</g>
<!-- 27 -->
<g id="node28" class="node">
<title>27</title>
<ellipse fill="none" stroke="black" cx="2457" cy="-18" rx="27" ry="18"/>
<text text-anchor="middle" x="2457" y="-14.3" font-family="Times,serif" font-size="14.00">27</text>
</g>
<!-- 27&#45;&gt;27 -->
<g id="edge28" class="edge">
<title>27&#45;&gt;27</title>
<path fill="none" stroke="black" d="M2482.44,-24.69C2493.03,-25.15 2502,-22.92 2502,-18 2502,-14.77 2498.14,-12.7 2492.49,-11.79"/>
<polygon fill="black" stroke="black" points="2492.6,-8.29 2482.44,-11.31 2492.27,-15.28 2492.6,-8.29"/>
</g>
<!-- 28 -->
<g id="node29" class="node">
<title>28</title>
<ellipse fill="none" stroke="black" cx="2547" cy="-18" rx="27" ry="18"/>
<text text-anchor="middle" x="2547" y="-14.3" font-family="Times,serif" font-size="14.00">28</text>
</g>
<!-- 28&#45;&gt;28 -->
<g id="edge29" class="edge">
<title>28&#45;&gt;28</title>
<path fill="none" stroke="black" d="M2572.44,-24.69C2583.03,-25.15 2592,-22.92 2592,-18 2592,-14.77 2588.14,-12.7 2582.49,-11.79"/>
<polygon fill="black" stroke="black" points="2582.6,-8.29 2572.44,-11.31 2582.27,-15.28 2582.6,-8.29"/>
</g>
<!-- 29 -->
<g id="node30" class="node">
<title>29</title>
<ellipse fill="none" stroke="black" cx="2637" cy="-18" rx="27" ry="18"/>
<text text-anchor="middle" x="2637" y="-14.3" font-family="Times,serif" font-size="14.00">29</text>
</g>
<!-- 29&#45;&gt;29 -->
<g id="edge30" class="edge">
<title>29&#45;&gt;29</title>
<path fill="none" stroke="black" d="M2662.44,-24.69C2673.03,-25.15 2682,-22.92 2682,-18 2682,-14.77 2678.14,-12.7 2672.49,-11.79"/>
<polygon fill="black" stroke="black" points="2672.6,-8.29 2662.44,-11.31 2672.27,-15.28 2672.6,-8.29"/>
</g>
<!-- 30 -->
<g id="node31" class="node">
<title>30</title>
<ellipse fill="none" stroke="black" cx="2727" cy="-18" rx="27" ry="18"/>
<text text-anchor="middle" x="2727" y="-14.3" font-family="Times,serif" font-size="14.00">30</text>
</g>
<!-- 30&#45;&gt;30 -->
<g id="edge31" class="edge">
<title>30&#45;&gt;30</title>
<path fill="none" stroke="black" d="M2752.44,-24.69C2763.03,-25.15 2772,-22.92 2772,-18 2772,-14.77 2768.14,-12.7 2762.49,-11.79"/>
<polygon fill="black" stroke="black" points="2762.6,-8.29 2752.44,-11.31 2762.27,-15.28 2762.6,-8.29"/>
</g>
<!-- 31 -->
<g id="node32" class="node">
<title>31</title>
<ellipse fill="none" stroke="black" cx="2817" cy="-18" rx="27" ry="18"/>
<text text-anchor="middle" x="2817" y="-14.3" font-family="Times,serif" font-size="14.00">31</text>
</g>
<!-- 31&#45;&gt;31 -->
<g id="edge32" class="edge">
<title>31&#45;&gt;31</title>
<path fill="none" stroke="black" d="M2842.44,-24.69C2853.03,-25.15 2862,-22.92 2862,-18 2862,-14.77 2858.14,-12.7 2852.49,-11.79"/>
<polygon fill="black" stroke="black" points="2852.6,-8.29 2842.44,-11.31 2852.27,-15.28 2852.6,-8.29"/>
</g>
<!-- 32 -->
<g id="node33" class="node">
<title>32</title>
<ellipse fill="none" stroke="black" cx="2907" cy="-18" rx="27" ry="18"/>
<text text-anchor="middle" x="2907" y="-14.3" font-family="Times,serif" font-size="14.00">32</text>
</g>
<!-- 32&#45;&gt;32 -->
<g id="edge33" class="edge">
<title>32&#45;&gt;32</title>
<path fill="none" stroke="black" d="M2932.44,-24.69C2943.03,-25.15 2952,-22.92 2952,-18 2952,-14.77 2948.14,-12.7 2942.49,-11.79"/>
<polygon fill="black" stroke="black" points="2942.6,-8.29 2932.44,-11.31 2942.27,-15.28 2942.6,-8.29"/>
</g>
<!-- 33 -->
<g id="node34" class="node">
<title>33</title>
<ellipse fill="none" stroke="black" cx="2997" cy="-18" rx="27" ry="18"/>
<text text-anchor="middle" x="2997" y="-14.3" font-family="Times,serif" font-size="14.00">33</text>
</g>
<!-- 33&#45;&gt;33 -->
<g id="edge34" class="edge">
<title>33&#45;&gt;33</title>
<path fill="none" stroke="black" d="M3022.44,-24.69C3033.03,-25.15 3042,-22.92 3042,-18 3042,-14.77 3038.14,-12.7 3032.49,-11.79"/>
<polygon fill="black" stroke="black" points="3032.6,-8.29 3022.44,-11.31 3032.27,-15.28 3032.6,-8.29"/>
</g>
<!-- 34 -->
<g id="node35" class="node">
<title>34</title>
<ellipse fill="none" stroke="black" cx="3087" cy="-18" rx="27" ry="18"/>
<text text-anchor="middle" x="3087" y="-14.3" font-family="Times,serif" font-size="14.00">34</text>
</g>
<!-- 34&#45;&gt;34 -->
<g id="edge35" class="edge">
<title>34&#45;&gt;34</title>
<path fill="none" stroke="black" d="M3112.44,-24.69C3123.03,-25.15 3132,-22.92 3132,-18 3132,-14.77 3128.14,-12.7 3122.49,-11.79"/>
<polygon fill="black" stroke="black" points="3122.6,-8.29 3112.44,-11.31 3122.27,-15.28 3122.6,-8.29"/>
</g>
<!-- 35 -->
<g id="node36" class="node">
<title>35</title>
<ellipse fill="none" stroke="black" cx="3177" cy="-18" rx="27" ry="18"/>
<text text-anchor="middle" x="3177" y="-14.3" font-family="Times,serif" font-size="14.00">35</text>
</g>
<!-- 35&#45;&gt;35 -->
<g id="edge36" class="edge">
<title>35&#45;&gt;35</title>
<path fill="none" stroke="black" d="M3202.44,-24.69C3213.03,-25.15 3222,-22.92 3222,-18 3222,-14.77 3218.14,-12.7 3212.49,-11.79"/>
<polygon fill="black" stroke="black" points="3212.6,-8.29 3202.44,-11.31 3212.27,-15.28 3212.6,-8.29"/>
</g>
<!-- 36 -->
<g id="node37" class="node">
<title>36</title>
<ellipse fill="none" stroke="black" cx="3267" cy="-18" rx="27" ry="18"/>
<text text-anchor="middle" x="3267" y="-14.3" font-family="Times,serif" font-size="14.00">36</text>
</g>
<!-- 36&#45;&gt;36 -->
<g id="edge37" class="edge">
<title>36&#45;&gt;36</title>
<path fill="none" stroke="black" d="M3292.44,-24.69C3303.03,-25.15 3312,-22.92 3312,-18 3312,-14.77 3308.14,-12.7 3302.49,-11.79"/>
<polygon fill="black" stroke="black" points="3302.6,-8.29 3292.44,-11.31 3302.27,-15.28 3302.6,-8.29"/>
</g>
</g>
</svg>
