<?xml version="1.0" encoding="UTF-8" standalone="no"?>
<!DOCTYPE svg PUBLIC "-//W3C//DTD SVG 1.1//EN"
 "http://www.w3.org/Graphics/SVG/1.1/DTD/svg11.dtd">
<!-- Generated by graphviz version 2.44.1 (20200629.0846)
 -->
<!-- Pages: 1 -->
<svg width="1054pt" height="404pt"
 viewBox="0.00 0.00 1054.00 404.00" xmlns="http://www.w3.org/2000/svg" xmlns:xlink="http://www.w3.org/1999/xlink">
<g id="graph0" class="graph" transform="scale(1 1) rotate(0) translate(4 400)">
<polygon fill="white" stroke="transparent" points="-4,4 -4,-400 1050,-400 1050,4 -4,4"/>
<!-- 0 -->
<g id="node1" class="node">
<title>0</title>
<ellipse fill="none" stroke="black" cx="531" cy="-378" rx="27" ry="18"/>
<text text-anchor="middle" x="531" y="-374.3" font-family="Times,serif" font-size="14.00">0</text>
</g>
<!-- 17 -->
<g id="node18" class="node">
<title>17</title>
<ellipse fill="none" stroke="black" cx="531" cy="-306" rx="27" ry="18"/>
<text text-anchor="middle" x="531" y="-302.3" font-family="Times,serif" font-size="14.00">17</text>
</g>
<!-- 0&#45;&gt;17 -->
<g id="edge1" class="edge">
<title>0&#45;&gt;17</title>
<path fill="none" stroke="black" d="M525.16,-360.41C524.3,-352.51 524.05,-342.85 524.41,-333.94"/>
<polygon fill="black" stroke="black" points="527.9,-334.18 525.12,-323.96 520.92,-333.68 527.9,-334.18"/>
</g>
<!-- 1 -->
<g id="node2" class="node">
<title>1</title>
<ellipse fill="none" stroke="black" cx="27" cy="-234" rx="27" ry="18"/>
<text text-anchor="middle" x="27" y="-230.3" font-family="Times,serif" font-size="14.00">1</text>
</g>
<!-- 1&#45;&gt;17 -->
<g id="edge2" class="edge">
<title>1&#45;&gt;17</title>
<path fill="none" stroke="black" d="M50.31,-243.43C57.29,-246.61 64.82,-249.96 72,-252 224.31,-295.3 413.97,-303.42 493.44,-304.8"/>
<polygon fill="black" stroke="black" points="493.85,-308.31 503.91,-304.96 493.96,-301.31 493.85,-308.31"/>
</g>
<!-- 2 -->
<g id="node3" class="node">
<title>2</title>
<ellipse fill="none" stroke="black" cx="99" cy="-234" rx="27" ry="18"/>
<text text-anchor="middle" x="99" y="-230.3" font-family="Times,serif" font-size="14.00">2</text>
</g>
<!-- 2&#45;&gt;17 -->
<g id="edge3" class="edge">
<title>2&#45;&gt;17</title>
<path fill="none" stroke="black" d="M122.33,-243.36C129.31,-246.53 136.84,-249.89 144,-252 268.97,-288.9 423.77,-300.18 493.77,-303.58"/>
<polygon fill="black" stroke="black" points="493.71,-307.08 503.86,-304.04 494.03,-300.09 493.71,-307.08"/>
</g>
<!-- 3 -->
<g id="node4" class="node">
<title>3</title>
<ellipse fill="none" stroke="black" cx="387" cy="-18" rx="27" ry="18"/>
<text text-anchor="middle" x="387" y="-14.3" font-family="Times,serif" font-size="14.00">3</text>
</g>
<!-- 24 -->
<g id="node25" class="node">
<title>24</title>
<ellipse fill="none" stroke="black" cx="531" cy="-90" rx="27" ry="18"/>
<text text-anchor="middle" x="531" y="-86.3" font-family="Times,serif" font-size="14.00">24</text>
</g>
<!-- 3&#45;&gt;24 -->
<g id="edge4" class="edge">
<title>3&#45;&gt;24</title>
<path fill="none" stroke="black" d="M409.81,-27.82C435.1,-38.99 475.53,-58.46 502.76,-72.43"/>
<polygon fill="black" stroke="black" points="501.3,-75.62 511.79,-77.13 504.53,-69.41 501.3,-75.62"/>
</g>
<!-- 4 -->
<g id="node5" class="node">
<title>4</title>
<ellipse fill="none" stroke="black" cx="171" cy="-234" rx="27" ry="18"/>
<text text-anchor="middle" x="171" y="-230.3" font-family="Times,serif" font-size="14.00">4</text>
</g>
<!-- 4&#45;&gt;17 -->
<g id="edge5" class="edge">
<title>4&#45;&gt;17</title>
<path fill="none" stroke="black" d="M194.36,-243.25C201.35,-246.41 208.87,-249.78 216,-252 314.06,-282.51 434.59,-296.33 494.24,-301.84"/>
<polygon fill="black" stroke="black" points="494.04,-305.33 504.31,-302.74 494.66,-298.36 494.04,-305.33"/>
</g>
<!-- 5 -->
<g id="node6" class="node">
<title>5</title>
<ellipse fill="none" stroke="black" cx="99" cy="-90" rx="27" ry="18"/>
<text text-anchor="middle" x="99" y="-86.3" font-family="Times,serif" font-size="14.00">5</text>
</g>
<!-- 36 -->
<g id="node37" class="node">
<title>36</title>
<ellipse fill="none" stroke="black" cx="567" cy="-162" rx="27" ry="18"/>
<text text-anchor="middle" x="567" y="-158.3" font-family="Times,serif" font-size="14.00">36</text>
</g>
<!-- 5&#45;&gt;36 -->
<g id="edge6" class="edge">
<title>5&#45;&gt;36</title>
<path fill="none" stroke="black" d="M122.3,-99.48C129.28,-102.67 136.81,-106.01 144,-108 298.95,-150.96 345.41,-117.47 504,-144 513.77,-145.63 524.18,-147.83 533.73,-150.09"/>
<polygon fill="black" stroke="black" points="533.11,-153.55 543.66,-152.56 534.8,-146.75 533.11,-153.55"/>
</g>
<!-- 6 -->
<g id="node7" class="node">
<title>6</title>
<ellipse fill="none" stroke="black" cx="243" cy="-234" rx="27" ry="18"/>
<text text-anchor="middle" x="243" y="-230.3" font-family="Times,serif" font-size="14.00">6</text>
</g>
<!-- 6&#45;&gt;17 -->
<g id="edge7" class="edge">
<title>6&#45;&gt;17</title>
<path fill="none" stroke="black" d="M266.41,-243.09C273.41,-246.22 280.92,-249.62 288,-252 359.85,-276.15 447.08,-291.56 495.17,-299.21"/>
<polygon fill="black" stroke="black" points="494.68,-302.68 505.1,-300.77 495.77,-295.76 494.68,-302.68"/>
</g>
<!-- 7 -->
<g id="node8" class="node">
<title>7</title>
<ellipse fill="none" stroke="black" cx="315" cy="-234" rx="27" ry="18"/>
<text text-anchor="middle" x="315" y="-230.3" font-family="Times,serif" font-size="14.00">7</text>
</g>
<!-- 7&#45;&gt;17 -->
<g id="edge8" class="edge">
<title>7&#45;&gt;17</title>
<path fill="none" stroke="black" d="M338.9,-242.98C345.8,-246.03 353.15,-249.39 360,-252 406.83,-269.83 462.37,-285.37 497.29,-294.93"/>
<polygon fill="black" stroke="black" points="496.43,-298.32 507,-297.58 498.28,-291.57 496.43,-298.32"/>
</g>
<!-- 8 -->
<g id="node9" class="node">
<title>8</title>
<ellipse fill="none" stroke="black" cx="387" cy="-234" rx="27" ry="18"/>
<text text-anchor="middle" x="387" y="-230.3" font-family="Times,serif" font-size="14.00">8</text>
</g>
<!-- 8&#45;&gt;17 -->
<g id="edge9" class="edge">
<title>8&#45;&gt;17</title>
<path fill="none" stroke="black" d="M409.81,-243.82C435.1,-254.99 475.53,-274.46 502.76,-288.43"/>
<polygon fill="black" stroke="black" points="501.3,-291.62 511.79,-293.13 504.53,-285.41 501.3,-291.62"/>
</g>
<!-- 9 -->
<g id="node10" class="node">
<title>9</title>
<ellipse fill="none" stroke="black" cx="459" cy="-234" rx="27" ry="18"/>
<text text-anchor="middle" x="459" y="-230.3" font-family="Times,serif" font-size="14.00">9</text>
</g>
<!-- 11 -->
<g id="node12" class="node">
<title>11</title>
<ellipse fill="none" stroke="black" cx="459" cy="-162" rx="27" ry="18"/>
<text text-anchor="middle" x="459" y="-158.3" font-family="Times,serif" font-size="14.00">11</text>
</g>
<!-- 9&#45;&gt;11 -->
<g id="edge10" class="edge">
<title>9&#45;&gt;11</title>
<path fill="none" stroke="black" d="M453.16,-216.41C452.3,-208.51 452.05,-198.85 452.41,-189.94"/>
<polygon fill="black" stroke="black" points="455.9,-190.18 453.12,-179.96 448.92,-189.68 455.9,-190.18"/>
</g>
<!-- 9&#45;&gt;17 -->
<g id="edge11" class="edge">
<title>9&#45;&gt;17</title>
<path fill="none" stroke="black" d="M477.24,-247.56C488.38,-257.01 502.34,-270.23 513.34,-281.6"/>
<polygon fill="black" stroke="black" points="511.02,-284.24 520.42,-289.12 516.11,-279.44 511.02,-284.24"/>
</g>
<!-- 10 -->
<g id="node11" class="node">
<title>10</title>
<ellipse fill="none" stroke="black" cx="531" cy="-234" rx="27" ry="18"/>
<text text-anchor="middle" x="531" y="-230.3" font-family="Times,serif" font-size="14.00">10</text>
</g>
<!-- 10&#45;&gt;17 -->
<g id="edge12" class="edge">
<title>10&#45;&gt;17</title>
<path fill="none" stroke="black" d="M536.88,-251.96C537.71,-259.83 537.95,-269.37 537.58,-278.19"/>
<polygon fill="black" stroke="black" points="534.07,-278.18 536.84,-288.41 541.06,-278.69 534.07,-278.18"/>
</g>
<!-- 11&#45;&gt;9 -->
<g id="edge13" class="edge">
<title>11&#45;&gt;9</title>
<path fill="none" stroke="black" d="M464.88,-179.96C465.71,-187.83 465.95,-197.37 465.58,-206.19"/>
<polygon fill="black" stroke="black" points="462.07,-206.18 464.84,-216.41 469.06,-206.69 462.07,-206.18"/>
</g>
<!-- 12 -->
<g id="node13" class="node">
<title>12</title>
<ellipse fill="none" stroke="black" cx="459" cy="-18" rx="27" ry="18"/>
<text text-anchor="middle" x="459" y="-14.3" font-family="Times,serif" font-size="14.00">12</text>
</g>
<!-- 12&#45;&gt;24 -->
<g id="edge14" class="edge">
<title>12&#45;&gt;24</title>
<path fill="none" stroke="black" d="M477.24,-31.56C488.38,-41.01 502.34,-54.23 513.34,-65.6"/>
<polygon fill="black" stroke="black" points="511.02,-68.24 520.42,-73.12 516.11,-63.44 511.02,-68.24"/>
</g>
<!-- 13 -->
<g id="node14" class="node">
<title>13</title>
<ellipse fill="none" stroke="black" cx="531" cy="-18" rx="27" ry="18"/>
<text text-anchor="middle" x="531" y="-14.3" font-family="Times,serif" font-size="14.00">13</text>
</g>
<!-- 13&#45;&gt;24 -->
<g id="edge15" class="edge">
<title>13&#45;&gt;24</title>
<path fill="none" stroke="black" d="M536.88,-35.96C537.71,-43.83 537.95,-53.37 537.58,-62.19"/>
<polygon fill="black" stroke="black" points="534.07,-62.18 536.84,-72.41 541.06,-62.69 534.07,-62.18"/>
</g>
<!-- 14 -->
<g id="node15" class="node">
<title>14</title>
<ellipse fill="none" stroke="black" cx="603" cy="-234" rx="27" ry="18"/>
<text text-anchor="middle" x="603" y="-230.3" font-family="Times,serif" font-size="14.00">14</text>
</g>
<!-- 14&#45;&gt;17 -->
<g id="edge16" class="edge">
<title>14&#45;&gt;17</title>
<path fill="none" stroke="black" d="M592.46,-250.85C583.02,-261.19 569.18,-274.75 556.94,-285.71"/>
<polygon fill="black" stroke="black" points="554.42,-283.27 549.19,-292.49 559.02,-288.54 554.42,-283.27"/>
</g>
<!-- 14&#45;&gt;36 -->
<g id="edge17" class="edge">
<title>14&#45;&gt;36</title>
<path fill="none" stroke="black" d="M589.73,-218.15C584.38,-209.79 578.57,-199.09 573.99,-189.34"/>
<polygon fill="black" stroke="black" points="577.12,-187.77 569.88,-180.04 570.71,-190.6 577.12,-187.77"/>
</g>
<!-- 15 -->
<g id="node16" class="node">
<title>15</title>
<ellipse fill="none" stroke="black" cx="603" cy="-18" rx="27" ry="18"/>
<text text-anchor="middle" x="603" y="-14.3" font-family="Times,serif" font-size="14.00">15</text>
</g>
<!-- 15&#45;&gt;24 -->
<g id="edge18" class="edge">
<title>15&#45;&gt;24</title>
<path fill="none" stroke="black" d="M592.46,-34.85C583.02,-45.19 569.18,-58.75 556.94,-69.71"/>
<polygon fill="black" stroke="black" points="554.42,-67.27 549.19,-76.49 559.02,-72.54 554.42,-67.27"/>
</g>
<!-- 16 -->
<g id="node17" class="node">
<title>16</title>
<ellipse fill="none" stroke="black" cx="171" cy="-90" rx="27" ry="18"/>
<text text-anchor="middle" x="171" y="-86.3" font-family="Times,serif" font-size="14.00">16</text>
</g>
<!-- 16&#45;&gt;36 -->
<g id="edge19" class="edge">
<title>16&#45;&gt;36</title>
<path fill="none" stroke="black" d="M194.32,-99.39C201.3,-102.57 208.83,-105.92 216,-108 339.87,-143.99 377.04,-121.15 504,-144 513.75,-145.75 524.15,-147.99 533.69,-150.27"/>
<polygon fill="black" stroke="black" points="533.09,-153.72 543.63,-152.73 534.77,-146.93 533.09,-153.72"/>
</g>
<!-- 17&#45;&gt;0 -->
<g id="edge20" class="edge">
<title>17&#45;&gt;0</title>
<path fill="none" stroke="black" d="M536.88,-323.96C537.71,-331.83 537.95,-341.37 537.58,-350.19"/>
<polygon fill="black" stroke="black" points="534.07,-350.18 536.84,-360.41 541.06,-350.69 534.07,-350.18"/>
</g>
<!-- 17&#45;&gt;1 -->
<g id="edge21" class="edge">
<title>17&#45;&gt;1</title>
<path fill="none" stroke="black" d="M503.86,-305.03C429.78,-304.58 219.76,-299.12 54,-252 53.78,-251.94 53.57,-251.88 53.35,-251.81"/>
<polygon fill="black" stroke="black" points="54.23,-248.41 43.64,-248.31 51.86,-254.99 54.23,-248.41"/>
</g>
<!-- 17&#45;&gt;2 -->
<g id="edge22" class="edge">
<title>17&#45;&gt;2</title>
<path fill="none" stroke="black" d="M503.92,-304.39C437.63,-302.22 263.7,-292.66 126,-252 125.78,-251.94 125.57,-251.87 125.35,-251.81"/>
<polygon fill="black" stroke="black" points="126.25,-248.41 115.66,-248.24 123.83,-254.98 126.25,-248.41"/>
</g>
<!-- 17&#45;&gt;4 -->
<g id="edge23" class="edge">
<title>17&#45;&gt;4</title>
<path fill="none" stroke="black" d="M503.93,-303.49C446.11,-299.43 307.94,-286.21 198,-252 197.9,-251.97 197.79,-251.94 197.69,-251.9"/>
<polygon fill="black" stroke="black" points="198.67,-248.53 188.07,-248.31 196.22,-255.09 198.67,-248.53"/>
</g>
<!-- 17&#45;&gt;6 -->
<g id="edge24" class="edge">
<title>17&#45;&gt;6</title>
<path fill="none" stroke="black" d="M504.32,-302.18C456.12,-296.07 352.85,-279.85 270,-252 269.9,-251.97 269.8,-251.93 269.69,-251.9"/>
<polygon fill="black" stroke="black" points="270.71,-248.54 260.12,-248.17 268.17,-255.06 270.71,-248.54"/>
</g>
<!-- 17&#45;&gt;7 -->
<g id="edge25" class="edge">
<title>17&#45;&gt;7</title>
<path fill="none" stroke="black" d="M505.44,-300.18C468.36,-291.87 398.78,-273.62 342,-252 341.9,-251.96 341.8,-251.92 341.7,-251.88"/>
<polygon fill="black" stroke="black" points="342.79,-248.55 332.21,-247.92 340.09,-255 342.79,-248.55"/>
</g>
<!-- 17&#45;&gt;8 -->
<g id="edge26" class="edge">
<title>17&#45;&gt;8</title>
<path fill="none" stroke="black" d="M508.09,-296.13C482.77,-284.95 442.33,-265.48 415.14,-251.51"/>
<polygon fill="black" stroke="black" points="416.61,-248.33 406.12,-246.83 413.38,-254.54 416.61,-248.33"/>
</g>
<!-- 17&#45;&gt;9 -->
<g id="edge27" class="edge">
<title>17&#45;&gt;9</title>
<path fill="none" stroke="black" d="M512.81,-292.49C501.66,-283.03 487.66,-269.77 476.63,-258.37"/>
<polygon fill="black" stroke="black" points="478.95,-255.72 469.54,-250.85 473.85,-260.52 478.95,-255.72"/>
</g>
<!-- 17&#45;&gt;10 -->
<g id="edge28" class="edge">
<title>17&#45;&gt;10</title>
<path fill="none" stroke="black" d="M525.16,-288.41C524.3,-280.51 524.05,-270.85 524.41,-261.94"/>
<polygon fill="black" stroke="black" points="527.9,-262.18 525.12,-251.96 520.92,-261.68 527.9,-262.18"/>
</g>
<!-- 17&#45;&gt;14 -->
<g id="edge29" class="edge">
<title>17&#45;&gt;14</title>
<path fill="none" stroke="black" d="M541.58,-289.12C551.01,-278.79 564.8,-265.27 577.02,-254.32"/>
<polygon fill="black" stroke="black" points="579.53,-256.77 584.76,-247.56 574.92,-251.5 579.53,-256.77"/>
</g>
<!-- 22 -->
<g id="node23" class="node">
<title>22</title>
<ellipse fill="none" stroke="black" cx="675" cy="-234" rx="27" ry="18"/>
<text text-anchor="middle" x="675" y="-230.3" font-family="Times,serif" font-size="14.00">22</text>
</g>
<!-- 17&#45;&gt;22 -->
<g id="edge30" class="edge">
<title>17&#45;&gt;22</title>
<path fill="none" stroke="black" d="M550.21,-293.13C574.03,-280.58 614.55,-260.86 643.03,-247.93"/>
<polygon fill="black" stroke="black" points="644.49,-251.11 652.19,-243.82 641.63,-244.72 644.49,-251.11"/>
</g>
<!-- 27 -->
<g id="node28" class="node">
<title>27</title>
<ellipse fill="none" stroke="black" cx="747" cy="-234" rx="27" ry="18"/>
<text text-anchor="middle" x="747" y="-230.3" font-family="Times,serif" font-size="14.00">27</text>
</g>
<!-- 17&#45;&gt;27 -->
<g id="edge31" class="edge">
<title>17&#45;&gt;27</title>
<path fill="none" stroke="black" d="M555,-297.58C588.58,-288.41 650.55,-271.59 702,-252 705.85,-250.53 709.86,-248.83 713.86,-247.07"/>
<polygon fill="black" stroke="black" points="715.37,-250.23 723.1,-242.98 712.54,-243.83 715.37,-250.23"/>
</g>
<!-- 32 -->
<g id="node33" class="node">
<title>32</title>
<ellipse fill="none" stroke="black" cx="819" cy="-234" rx="27" ry="18"/>
<text text-anchor="middle" x="819" y="-230.3" font-family="Times,serif" font-size="14.00">32</text>
</g>
<!-- 17&#45;&gt;32 -->
<g id="edge32" class="edge">
<title>17&#45;&gt;32</title>
<path fill="none" stroke="black" d="M556.9,-300.77C602.04,-293.77 696.87,-277.92 774,-252 777.98,-250.66 782.1,-249 786.19,-247.25"/>
<polygon fill="black" stroke="black" points="787.86,-250.34 795.59,-243.09 785.02,-243.93 787.86,-250.34"/>
</g>
<!-- 33 -->
<g id="node34" class="node">
<title>33</title>
<ellipse fill="none" stroke="black" cx="963" cy="-90" rx="27" ry="18"/>
<text text-anchor="middle" x="963" y="-86.3" font-family="Times,serif" font-size="14.00">33</text>
</g>
<!-- 17&#45;&gt;33 -->
<g id="edge33" class="edge">
<title>17&#45;&gt;33</title>
<path fill="none" stroke="black" d="M557.87,-303.4C625.47,-299.19 799.51,-285.71 846,-252 889.78,-220.26 870.27,-187.78 902,-144 911.25,-131.23 923.53,-118.57 934.82,-108.82"/>
<polygon fill="black" stroke="black" points="937.29,-111.32 942.8,-102.28 932.85,-105.91 937.29,-111.32"/>
</g>
<!-- 34 -->
<g id="node35" class="node">
<title>34</title>
<ellipse fill="none" stroke="black" cx="947" cy="-234" rx="27" ry="18"/>
<text text-anchor="middle" x="947" y="-230.3" font-family="Times,serif" font-size="14.00">34</text>
</g>
<!-- 17&#45;&gt;34 -->
<g id="edge34" class="edge">
<title>17&#45;&gt;34</title>
<path fill="none" stroke="black" d="M557.69,-303.23C618.91,-298.99 772.68,-285.97 897,-252 902.39,-250.53 908.01,-248.53 913.51,-246.41"/>
<polygon fill="black" stroke="black" points="915.19,-249.51 923.2,-242.58 912.61,-243 915.19,-249.51"/>
</g>
<!-- 35 -->
<g id="node36" class="node">
<title>35</title>
<ellipse fill="none" stroke="black" cx="1019" cy="-234" rx="27" ry="18"/>
<text text-anchor="middle" x="1019" y="-230.3" font-family="Times,serif" font-size="14.00">35</text>
</g>
<!-- 17&#45;&gt;35 -->
<g id="edge35" class="edge">
<title>17&#45;&gt;35</title>
<path fill="none" stroke="black" d="M558.05,-304.78C628.32,-303.52 820.76,-295.89 974,-252 978.04,-250.84 982.18,-249.28 986.28,-247.56"/>
<polygon fill="black" stroke="black" points="987.95,-250.65 995.69,-243.42 985.12,-244.25 987.95,-250.65"/>
</g>
<!-- 18 -->
<g id="node19" class="node">
<title>18</title>
<ellipse fill="none" stroke="black" cx="947" cy="-162" rx="27" ry="18"/>
<text text-anchor="middle" x="947" y="-158.3" font-family="Times,serif" font-size="14.00">18</text>
</g>
<!-- 18&#45;&gt;34 -->
<g id="edge36" class="edge">
<title>18&#45;&gt;34</title>
<path fill="none" stroke="black" d="M952.88,-179.96C953.71,-187.83 953.95,-197.37 953.58,-206.19"/>
<polygon fill="black" stroke="black" points="950.07,-206.18 952.84,-216.41 957.06,-206.69 950.07,-206.18"/>
</g>
<!-- 19 -->
<g id="node20" class="node">
<title>19</title>
<ellipse fill="none" stroke="black" cx="243" cy="-90" rx="27" ry="18"/>
<text text-anchor="middle" x="243" y="-86.3" font-family="Times,serif" font-size="14.00">19</text>
</g>
<!-- 19&#45;&gt;36 -->
<g id="edge37" class="edge">
<title>19&#45;&gt;36</title>
<path fill="none" stroke="black" d="M266.37,-99.24C273.36,-102.4 280.88,-105.77 288,-108 380.89,-137.06 408.59,-124.81 504,-144 513.71,-145.95 524.1,-148.27 533.64,-150.56"/>
<polygon fill="black" stroke="black" points="533.03,-154.01 543.58,-153.01 534.71,-147.22 533.03,-154.01"/>
</g>
<!-- 20 -->
<g id="node21" class="node">
<title>20</title>
<ellipse fill="none" stroke="black" cx="315" cy="-90" rx="27" ry="18"/>
<text text-anchor="middle" x="315" y="-86.3" font-family="Times,serif" font-size="14.00">20</text>
</g>
<!-- 20&#45;&gt;36 -->
<g id="edge38" class="edge">
<title>20&#45;&gt;36</title>
<path fill="none" stroke="black" d="M338.45,-98.97C345.46,-102.09 352.96,-105.5 360,-108 368.35,-110.96 475.8,-136.93 532.6,-151.39"/>
<polygon fill="black" stroke="black" points="532.03,-154.85 542.59,-153.94 533.77,-148.07 532.03,-154.85"/>
</g>
<!-- 21 -->
<g id="node22" class="node">
<title>21</title>
<ellipse fill="none" stroke="black" cx="387" cy="-90" rx="27" ry="18"/>
<text text-anchor="middle" x="387" y="-86.3" font-family="Times,serif" font-size="14.00">21</text>
</g>
<!-- 21&#45;&gt;36 -->
<g id="edge39" class="edge">
<title>21&#45;&gt;36</title>
<path fill="none" stroke="black" d="M411,-98.75C417.91,-101.77 425.24,-105.17 432,-108 467.12,-122.72 507.92,-137.53 535.53,-147.73"/>
<polygon fill="black" stroke="black" points="534.48,-151.08 545.08,-151.28 536.92,-144.51 534.48,-151.08"/>
</g>
<!-- 22&#45;&gt;17 -->
<g id="edge40" class="edge">
<title>22&#45;&gt;17</title>
<path fill="none" stroke="black" d="M655.88,-246.83C632.1,-259.36 591.59,-279.08 563.08,-292.02"/>
<polygon fill="black" stroke="black" points="561.6,-288.85 553.91,-296.13 564.47,-295.24 561.6,-288.85"/>
</g>
<!-- 23 -->
<g id="node24" class="node">
<title>23</title>
<ellipse fill="none" stroke="black" cx="459" cy="-90" rx="27" ry="18"/>
<text text-anchor="middle" x="459" y="-86.3" font-family="Times,serif" font-size="14.00">23</text>
</g>
<!-- 23&#45;&gt;36 -->
<g id="edge41" class="edge">
<title>23&#45;&gt;36</title>
<path fill="none" stroke="black" d="M479.99,-101.39C498.06,-111.88 523.85,-128.34 542.76,-141.31"/>
<polygon fill="black" stroke="black" points="540.96,-144.32 551.17,-147.17 544.96,-138.58 540.96,-144.32"/>
</g>
<!-- 24&#45;&gt;3 -->
<g id="edge42" class="edge">
<title>24&#45;&gt;3</title>
<path fill="none" stroke="black" d="M508.09,-80.13C482.77,-68.95 442.33,-49.48 415.14,-35.51"/>
<polygon fill="black" stroke="black" points="416.61,-32.33 406.12,-30.83 413.38,-38.54 416.61,-32.33"/>
</g>
<!-- 24&#45;&gt;12 -->
<g id="edge43" class="edge">
<title>24&#45;&gt;12</title>
<path fill="none" stroke="black" d="M512.81,-76.49C501.66,-67.03 487.66,-53.77 476.63,-42.37"/>
<polygon fill="black" stroke="black" points="478.95,-39.72 469.54,-34.85 473.85,-44.52 478.95,-39.72"/>
</g>
<!-- 24&#45;&gt;13 -->
<g id="edge44" class="edge">
<title>24&#45;&gt;13</title>
<path fill="none" stroke="black" d="M525.16,-72.41C524.3,-64.51 524.05,-54.85 524.41,-45.94"/>
<polygon fill="black" stroke="black" points="527.9,-46.18 525.12,-35.96 520.92,-45.68 527.9,-46.18"/>
</g>
<!-- 24&#45;&gt;15 -->
<g id="edge45" class="edge">
<title>24&#45;&gt;15</title>
<path fill="none" stroke="black" d="M541.58,-73.12C551.01,-62.79 564.8,-49.27 577.02,-38.32"/>
<polygon fill="black" stroke="black" points="579.53,-40.77 584.76,-31.56 574.92,-35.5 579.53,-40.77"/>
</g>
<!-- 31 -->
<g id="node32" class="node">
<title>31</title>
<ellipse fill="none" stroke="black" cx="675" cy="-18" rx="27" ry="18"/>
<text text-anchor="middle" x="675" y="-14.3" font-family="Times,serif" font-size="14.00">31</text>
</g>
<!-- 24&#45;&gt;31 -->
<g id="edge46" class="edge">
<title>24&#45;&gt;31</title>
<path fill="none" stroke="black" d="M550.21,-77.13C574.03,-64.58 614.55,-44.86 643.03,-31.93"/>
<polygon fill="black" stroke="black" points="644.49,-35.11 652.19,-27.82 641.63,-28.72 644.49,-35.11"/>
</g>
<!-- 24&#45;&gt;36 -->
<g id="edge47" class="edge">
<title>24&#45;&gt;36</title>
<path fill="none" stroke="black" d="M544.3,-105.89C549.66,-114.28 555.48,-125 560.06,-134.75"/>
<polygon fill="black" stroke="black" points="556.93,-136.32 564.16,-144.05 563.33,-133.49 556.93,-136.32"/>
</g>
<!-- 25 -->
<g id="node26" class="node">
<title>25</title>
<ellipse fill="none" stroke="black" cx="603" cy="-90" rx="27" ry="18"/>
<text text-anchor="middle" x="603" y="-86.3" font-family="Times,serif" font-size="14.00">25</text>
</g>
<!-- 25&#45;&gt;36 -->
<g id="edge48" class="edge">
<title>25&#45;&gt;36</title>
<path fill="none" stroke="black" d="M600.12,-108.04C596.51,-116.87 591.07,-127.8 585.54,-137.43"/>
<polygon fill="black" stroke="black" points="582.45,-135.79 580.27,-146.15 588.44,-139.4 582.45,-135.79"/>
</g>
<!-- 26 -->
<g id="node27" class="node">
<title>26</title>
<ellipse fill="none" stroke="black" cx="675" cy="-90" rx="27" ry="18"/>
<text text-anchor="middle" x="675" y="-86.3" font-family="Times,serif" font-size="14.00">26</text>
</g>
<!-- 26&#45;&gt;36 -->
<g id="edge49" class="edge">
<title>26&#45;&gt;36</title>
<path fill="none" stroke="black" d="M659.37,-104.68C643,-116.33 617.26,-133.07 597.01,-145.27"/>
<polygon fill="black" stroke="black" points="594.97,-142.41 588.15,-150.52 598.54,-148.43 594.97,-142.41"/>
</g>
<!-- 27&#45;&gt;17 -->
<g id="edge50" class="edge">
<title>27&#45;&gt;17</title>
<path fill="none" stroke="black" d="M729.79,-247.92C726.57,-249.37 723.23,-250.77 720,-252 667.88,-271.84 604.97,-288.85 566.32,-297.94"/>
<polygon fill="black" stroke="black" points="565.52,-294.53 556.56,-300.18 567.09,-301.35 565.52,-294.53"/>
</g>
<!-- 28 -->
<g id="node29" class="node">
<title>28</title>
<ellipse fill="none" stroke="black" cx="747" cy="-90" rx="27" ry="18"/>
<text text-anchor="middle" x="747" y="-86.3" font-family="Times,serif" font-size="14.00">28</text>
</g>
<!-- 28&#45;&gt;36 -->
<g id="edge51" class="edge">
<title>28&#45;&gt;36</title>
<path fill="none" stroke="black" d="M729.32,-103.89C726.24,-105.32 723.06,-106.72 720,-108 680.1,-124.73 632.86,-141.56 601.36,-151.64"/>
<polygon fill="black" stroke="black" points="600.21,-148.33 591.72,-154.66 602.31,-155.01 600.21,-148.33"/>
</g>
<!-- 29 -->
<g id="node30" class="node">
<title>29</title>
<ellipse fill="none" stroke="black" cx="819" cy="-90" rx="27" ry="18"/>
<text text-anchor="middle" x="819" y="-86.3" font-family="Times,serif" font-size="14.00">29</text>
</g>
<!-- 29&#45;&gt;36 -->
<g id="edge52" class="edge">
<title>29&#45;&gt;36</title>
<path fill="none" stroke="black" d="M801.84,-104.06C798.62,-105.49 795.26,-106.84 792,-108 727.35,-130.94 648.4,-147.56 603.13,-155.59"/>
<polygon fill="black" stroke="black" points="602.44,-152.16 593.19,-157.31 603.64,-159.06 602.44,-152.16"/>
</g>
<!-- 30 -->
<g id="node31" class="node">
<title>30</title>
<ellipse fill="none" stroke="black" cx="891" cy="-90" rx="27" ry="18"/>
<text text-anchor="middle" x="891" y="-86.3" font-family="Times,serif" font-size="14.00">30</text>
</g>
<!-- 30&#45;&gt;36 -->
<g id="edge53" class="edge">
<title>30&#45;&gt;36</title>
<path fill="none" stroke="black" d="M873.91,-104.25C870.67,-105.65 867.29,-106.94 864,-108 773.34,-137.2 661.14,-152.05 603.95,-157.91"/>
<polygon fill="black" stroke="black" points="603.53,-154.43 593.93,-158.9 604.22,-161.4 603.53,-154.43"/>
</g>
<!-- 31&#45;&gt;24 -->
<g id="edge54" class="edge">
<title>31&#45;&gt;24</title>
<path fill="none" stroke="black" d="M655.88,-30.83C632.1,-43.36 591.59,-63.08 563.08,-76.02"/>
<polygon fill="black" stroke="black" points="561.6,-72.85 553.91,-80.13 564.47,-79.24 561.6,-72.85"/>
</g>
<!-- 32&#45;&gt;17 -->
<g id="edge55" class="edge">
<title>32&#45;&gt;17</title>
<path fill="none" stroke="black" d="M801.88,-248.17C798.65,-249.58 795.28,-250.9 792,-252 714.49,-278.05 619.1,-293.93 567.67,-300.88"/>
<polygon fill="black" stroke="black" points="567.14,-297.41 557.68,-302.18 568.05,-304.36 567.14,-297.41"/>
</g>
<!-- 33&#45;&gt;17 -->
<g id="edge56" class="edge">
<title>33&#45;&gt;17</title>
<path fill="none" stroke="black" d="M952.58,-107.02C943.09,-116.98 929.83,-130.43 920,-144 888.27,-187.78 907.78,-220.26 864,-252 817.72,-285.55 645.08,-299.06 568.16,-303.34"/>
<polygon fill="black" stroke="black" points="567.76,-299.86 557.96,-303.88 568.13,-306.85 567.76,-299.86"/>
</g>
<!-- 33&#45;&gt;36 -->
<g id="edge57" class="edge">
<title>33&#45;&gt;36</title>
<path fill="none" stroke="black" d="M946.33,-104.2C942.97,-105.64 939.44,-106.96 936,-108 818.62,-143.5 672.26,-155.64 604.44,-159.43"/>
<polygon fill="black" stroke="black" points="604.05,-155.94 594.24,-159.97 604.42,-162.94 604.05,-155.94"/>
</g>
<!-- 34&#45;&gt;17 -->
<g id="edge58" class="edge">
<title>34&#45;&gt;17</title>
<path fill="none" stroke="black" d="M928.43,-247.49C924.08,-249.2 919.46,-250.78 915,-252 791.02,-285.88 637.75,-298.92 568.18,-303.19"/>
<polygon fill="black" stroke="black" points="567.93,-299.7 558.15,-303.78 568.34,-306.69 567.93,-299.7"/>
</g>
<!-- 34&#45;&gt;18 -->
<g id="edge59" class="edge">
<title>34&#45;&gt;18</title>
<path fill="none" stroke="black" d="M941.16,-216.41C940.3,-208.51 940.05,-198.85 940.41,-189.94"/>
<polygon fill="black" stroke="black" points="943.9,-190.18 941.12,-179.96 936.92,-189.68 943.9,-190.18"/>
</g>
<!-- 35&#45;&gt;17 -->
<g id="edge60" class="edge">
<title>35&#45;&gt;17</title>
<path fill="none" stroke="black" d="M1002.36,-248.3C998.99,-249.72 995.46,-251.01 992,-252 839.35,-295.72 647.8,-303.46 568.16,-304.77"/>
<polygon fill="black" stroke="black" points="568.07,-301.27 558.12,-304.91 568.17,-308.27 568.07,-301.27"/>
</g>
<!-- 36&#45;&gt;5 -->
<g id="edge61" class="edge">
<title>36&#45;&gt;5</title>
<path fill="none" stroke="black" d="M541.46,-156C525.31,-152.19 504.49,-147.09 486,-144 327.41,-117.47 280.95,-150.96 126,-108 125.78,-107.94 125.57,-107.88 125.35,-107.82"/>
<polygon fill="black" stroke="black" points="126.22,-104.41 115.62,-104.35 123.87,-111 126.22,-104.41"/>
</g>
<!-- 36&#45;&gt;14 -->
<g id="edge62" class="edge">
<title>36&#45;&gt;14</title>
<path fill="none" stroke="black" d="M580.3,-177.89C585.66,-186.28 591.48,-197 596.06,-206.75"/>
<polygon fill="black" stroke="black" points="592.93,-208.32 600.16,-216.05 599.33,-205.49 592.93,-208.32"/>
</g>
<!-- 36&#45;&gt;16 -->
<g id="edge63" class="edge">
<title>36&#45;&gt;16</title>
<path fill="none" stroke="black" d="M541.44,-156.12C525.28,-152.38 504.46,-147.32 486,-144 359.04,-121.15 321.87,-143.99 198,-108 197.78,-107.94 197.57,-107.87 197.35,-107.81"/>
<polygon fill="black" stroke="black" points="198.24,-104.41 187.65,-104.27 195.84,-110.98 198.24,-104.41"/>
</g>
<!-- 36&#45;&gt;19 -->
<g id="edge64" class="edge">
<title>36&#45;&gt;19</title>
<path fill="none" stroke="black" d="M541.06,-156.25C524.93,-152.64 504.26,-147.67 486,-144 390.59,-124.81 362.89,-137.06 270,-108 269.9,-107.97 269.79,-107.94 269.69,-107.9"/>
<polygon fill="black" stroke="black" points="270.67,-104.53 260.08,-104.3 268.21,-111.09 270.67,-104.53"/>
</g>
<!-- 36&#45;&gt;20 -->
<g id="edge65" class="edge">
<title>36&#45;&gt;20</title>
<path fill="none" stroke="black" d="M541.43,-155.92C484.23,-143.3 351.33,-111.31 342,-108 341.9,-107.96 341.8,-107.93 341.69,-107.89"/>
<polygon fill="black" stroke="black" points="342.74,-104.54 332.16,-104.06 340.13,-111.04 342.74,-104.54"/>
</g>
<!-- 36&#45;&gt;21 -->
<g id="edge66" class="edge">
<title>36&#45;&gt;21</title>
<path fill="none" stroke="black" d="M542.28,-154.66C511.45,-145.21 458.22,-126.54 414,-108 413.9,-107.96 413.81,-107.92 413.71,-107.88"/>
<polygon fill="black" stroke="black" points="415.24,-104.73 404.68,-103.89 412.41,-111.13 415.24,-104.73"/>
</g>
<!-- 36&#45;&gt;23 -->
<g id="edge67" class="edge">
<title>36&#45;&gt;23</title>
<path fill="none" stroke="black" d="M545.85,-150.52C527.71,-139.98 501.89,-123.49 483.01,-110.53"/>
<polygon fill="black" stroke="black" points="484.83,-107.54 474.63,-104.68 480.83,-113.28 484.83,-107.54"/>
</g>
<!-- 36&#45;&gt;24 -->
<g id="edge68" class="edge">
<title>36&#45;&gt;24</title>
<path fill="none" stroke="black" d="M553.73,-146.15C548.38,-137.79 542.57,-127.09 537.99,-117.34"/>
<polygon fill="black" stroke="black" points="541.12,-115.77 533.88,-108.04 534.71,-118.6 541.12,-115.77"/>
</g>
<!-- 36&#45;&gt;25 -->
<g id="edge69" class="edge">
<title>36&#45;&gt;25</title>
<path fill="none" stroke="black" d="M569.84,-144.05C573.44,-135.22 578.89,-124.28 584.42,-114.63"/>
<polygon fill="black" stroke="black" points="587.53,-116.26 589.7,-105.89 581.54,-112.64 587.53,-116.26"/>
</g>
<!-- 36&#45;&gt;26 -->
<g id="edge70" class="edge">
<title>36&#45;&gt;26</title>
<path fill="none" stroke="black" d="M582.83,-147.17C599.27,-135.49 624.98,-118.78 645.17,-106.62"/>
<polygon fill="black" stroke="black" points="647.19,-109.49 654.01,-101.39 643.62,-103.47 647.19,-109.49"/>
</g>
<!-- 36&#45;&gt;28 -->
<g id="edge71" class="edge">
<title>36&#45;&gt;28</title>
<path fill="none" stroke="black" d="M588.92,-151.28C615.98,-141.16 662.57,-124.53 702,-108 705.8,-106.41 709.78,-104.63 713.77,-102.85"/>
<polygon fill="black" stroke="black" points="715.28,-106.01 723,-98.75 712.44,-99.61 715.28,-106.01"/>
</g>
<!-- 36&#45;&gt;29 -->
<g id="edge72" class="edge">
<title>36&#45;&gt;29</title>
<path fill="none" stroke="black" d="M592.26,-155.36C631.88,-147.25 709.95,-130.72 774,-108 777.96,-106.6 782.06,-104.9 786.15,-103.13"/>
<polygon fill="black" stroke="black" points="787.82,-106.22 795.55,-98.97 784.98,-99.82 787.82,-106.22"/>
</g>
<!-- 36&#45;&gt;30 -->
<g id="edge73" class="edge">
<title>36&#45;&gt;30</title>
<path fill="none" stroke="black" d="M593.68,-157.83C644.15,-151.91 755.75,-137.07 846,-108 850,-106.71 854.12,-105.08 858.21,-103.34"/>
<polygon fill="black" stroke="black" points="859.88,-106.42 867.62,-99.18 857.05,-100.02 859.88,-106.42"/>
</g>
<!-- 36&#45;&gt;33 -->
<g id="edge74" class="edge">
<title>36&#45;&gt;33</title>
<path fill="none" stroke="black" d="M593.93,-159.45C653.68,-155.68 800.39,-143.57 918,-108 922.02,-106.78 926.16,-105.19 930.25,-103.46"/>
<polygon fill="black" stroke="black" points="931.92,-106.55 939.66,-99.31 929.09,-100.15 931.92,-106.55"/>
</g>
</g>
</svg>
